<svg width="146" height="112" fill="none" xmlns="http://www.w3.org/2000/svg"><path d="M90.142 79.795c1.506-2.91 6.455-12.84 9.888-23.983 15.129 4.106 23.3-4.969 26.202-9.225-2.56.16-4.287-.19-4.287-.19-4.126-.423-9.677-2.54-12.729-10.22-2.239-5.622-5.291-9.457-9.447-11.766 1.315-.251 2.942-.372 4.859-.372 2.791 0 6.184.252 10.36.784 1.968.25 3.885.371 5.702.371 13.523 0 19.957-6.716 22.598-10.711 4.457-6.767 2.078-13.934 2.078-13.934-4.739 10.23-18.271 9.707-18.271 9.707-3.925 0-8.262-.723-12.92-2.158-5.782-1.777-11.053-2.68-15.64-2.68-10.933 0-18.984 5.11-23.963 15.208a20.655 20.655 0 0 0-3.153 0C66.44 10.527 58.39 5.417 47.457 5.417c-4.588 0-9.848.904-15.64 2.68-4.659 1.426-8.996 2.16-12.92 2.16 0 0-13.533.521-18.272-9.708.01-.01-2.369 7.157 2.088 13.924 2.64 4.005 9.086 10.711 22.598 10.711 1.817 0 3.734-.12 5.702-.372 4.186-.532 7.57-.783 10.36-.783 1.918 0 3.544.121 4.859.372-4.146 2.309-7.208 6.144-9.447 11.765-3.051 7.68-8.613 9.798-12.729 10.22 0 0-1.737.351-4.287.19 2.892 4.257 11.073 13.342 26.202 9.227 3.433 11.143 8.362 21.061 9.868 23.972 0 0-3.403 10.511 5.29 19.004 0 0-.722 2.369-2.991 5.18 1.907.411 4.487.743 7.6.552 0 0 4.095 8.844 20.97 6.806 0 0-2.52-3.403-3.724-6.555 1.526-.181 3.795-.512 6.184-1.144 0 0-2.48-2.46-3.885-5.08 2.299-2.148 7.027-8.051 4.849-18.753l.01.01Z" fill="#fff"/><path d="M73.005 22.885c1.034 0 2.028.08 2.982.241 6.425-14.597 18.451-18.672 37.515-12.82 21.935 6.736 30.016-3.724 30.287-4.106.663 1.546-3.323 16.655-23.099 16.655-1.687 0-3.484-.11-5.411-.352-11.374-1.435-17.688-.963-20.45 1.546-.23.211-.43.442-.622.673 5.682 1.395 9.909 4.93 12.84 12.308 3.534 8.874 10.099 11.203 14.657 11.665 0 0-9.055 9.738-23.21 4.106-3.935 13.873-10.862 26.713-10.862 26.713s3.574 11.053-5.21 18.452c.542 1.606 1.425 2.981 2.379 4.106-2.018.381-3.765.451-5.26.331.722 2.218 1.817 5.1 2.961 6.816-11.615.171-14.687-5.25-15.43-7.258-1.767.362-3.453.382-4.949.241.884-1.415 1.345-2.941 1.586-4.236-9.155-7.57-5.39-18.452-5.39-18.452s-6.887-12.84-10.822-26.713c-14.155 5.632-23.21-4.106-23.21-4.106 4.557-.472 11.123-2.8 14.657-11.665 2.93-7.379 7.157-10.913 12.84-12.308a4.342 4.342 0 0 0-.623-.673c-2.77-2.5-9.075-2.981-20.45-1.546a43.568 43.568 0 0 1-5.41.352C5.524 22.855 1.539 7.756 2.2 6.2c.271.382 8.353 10.842 30.288 4.106 19.073-5.862 31.09-1.787 37.515 12.82a17.89 17.89 0 0 1 2.971-.241h.03Z" fill="#AE132A"/><path d="M83.968 82.626v-.04c-.542 5.873-7.58 10.53-11.635 12.75-.01-1.828-1.566-3.755-4.688-5.733-6.305-3.985-5.722-6.947-5.722-6.947s-2.29 5.21 2.72 10.611c0 0-.382-1.485.331-2.83 1.034 1.495 2.63 4.477 1.476 7.388 0 0 1.405-.24 2.58-1.536.351 2.57 1.727 6.244 6.475 7.61 0 0-2.128-3.092-.672-6.556 0 0 .813 1.727 2.87 1.787 0 0-1.044-2.7 1.557-4.638 6.183-4.497 4.698-11.856 4.698-11.856l.01-.01Z" fill="#A1ABB2"/><path d="M72.955 84.514c-5.15 0-7.288-1.707-7.288-1.707 1.386 5.22 7.288 5.622 7.288 5.622s5.903-.402 7.289-5.622c0 0-2.139 1.707-7.289 1.707Z" fill="#A1ABB2"/><path d="M112.459 13.7c-23.622-7.259-30.86 3.573-34.464 13.984a17.52 17.52 0 0 0-4.99-.703 17.52 17.52 0 0 0-4.989.703C64.412 17.274 57.174 6.44 33.553 13.699c-6.907 2.119-12.589 2.66-17.217 2.35 1.085.361 2.46.712 4.157.963 3.563.241 8.282.211 14.255-.482l1.114-2.228.793 2.108s.07 0 .1-.02l-.07.09 1.225 3.243 1.305-3.815c.15-.02.291-.04.442-.07 1.214-.201 2.359-.321 3.433-.402l1.646-2.82 1.265 6.314 1.757-3.454c1.466.161 2.75.452 3.885.844l2.76-1.998-1.716 7.268 2.901-3.072c4.086 3.393 4.638 8.593 5.02 10.822-.874-.291-11.987-3.734-16.223 6.314-3.192 7.55-6.826 11.706-10.41 13.613 3.644.703 12.88 1.044 19.234-11.334 1.807-3.513 4.327-5.02 7.218-5.14-1.777 1.044-4.046 3.223-3.192 7.299 0 0-3.333.2-4.568 3.855 0 0 4.497-1.878 12.348 8.844 0 0 .933-1.486 1.315-2.911 0 0 1.466 4.949-1.044 9.376 0 0-.1-1.847-1.938-4.528-.371 1.024-1.004 2.41-2.038 3.524 0 0-2.429-2.209-3.403-5.05 0 0 2.902 2.199 3.865-.803 0 0-.793-.783-1.837-1.797.02.884-.381 1.607-1.014 1.707-.753.12-1.546-.683-1.757-1.797-.18-.904.08-1.717.583-2.068-.583-.562-1.125-1.104-1.586-1.546 0 0-1.807 4.347.933 8.443 0 0-2.82-1.496-4.015-4.528 0 0-.864 1.466-.803 3.835 0 0 1.174 5.762 7.77 14.767 0 0 3.523-4.718 7.569-5.822 0 0-7.338 6.806-6.224 14.927 0 0 1.205-1.204 4.768 1.376 3.564 2.58 6.455 1.415 4.87-1.335-1.466-2.54-5.633-.713-5.633-6.686 0 0 2.39 1.867 7.55 1.867s7.549-1.867 7.549-1.867c0 5.983-4.176 4.156-5.632 6.686-1.586 2.75 1.295 3.915 4.859 1.335s4.768-1.376 4.768-1.376c1.115-8.121-6.214-14.927-6.214-14.927 4.046 1.104 7.57 5.822 7.57 5.822 6.595-9.005 7.77-14.767 7.77-14.767.06-2.37-.803-3.835-.803-3.835-1.195 3.032-4.016 4.528-4.016 4.528 2.74-4.096.934-8.443.934-8.443-.462.442-1.014.974-1.587 1.536.502.341.763 1.164.583 2.068-.211 1.114-1.004 1.907-1.757 1.797-.633-.1-1.034-.823-1.014-1.717a957.872 957.872 0 0 1-1.847 1.807c.964 3.012 3.865.803 3.865.803-.974 2.841-3.403 5.05-3.403 5.05-1.034-1.114-1.677-2.5-2.038-3.524-1.837 2.68-1.938 4.528-1.938 4.528-2.5-4.427-1.044-9.377-1.044-9.377.382 1.426 1.315 2.912 1.315 2.912 7.84-10.722 12.348-8.844 12.348-8.844-1.225-3.655-4.558-3.855-4.558-3.855.854-4.076-1.415-6.255-3.192-7.299 2.891.12 5.411 1.627 7.218 5.14 6.365 12.378 15.59 12.037 19.234 11.334-3.573-1.917-7.218-6.063-10.41-13.613-4.116-9.757-14.717-6.786-16.132-6.344.381-2.249.953-7.409 5.02-10.792l2.9 3.072-1.716-7.268 2.76 1.998a17.245 17.245 0 0 1 3.885-.844l1.757 3.454 1.265-6.315 1.646 2.821a35.1 35.1 0 0 1 3.434.402c.15.02.291.04.441.07l1.316 3.815 1.224-3.243-.07-.09s.07.01.1.02l.793-2.108 1.125 2.228c5.983.703 10.691.733 14.255.482 1.697-.25 3.072-.602 4.156-.963-4.628.32-10.31-.221-17.217-2.35l.011.01Z" fill="#fff"/><path d="M53.219 37.953c1.807-3.513 4.327-5.02 7.218-5.14 0 0-7.368-4.085-12.258 6.034-3.553 7.348-10.149 10.119-14.184 10.44 3.644.703 12.88 1.044 19.234-11.334h-.01ZM92.702 37.953c-1.807-3.513-4.327-5.02-7.218-5.14 0 0 7.358-4.085 12.257 6.034 3.554 7.348 10.15 10.119 14.185 10.44-3.644.703-12.87 1.044-19.234-11.334h.01ZM79.5 43.023c1.145-1.335 1.728-2.992 1.537-4.799-.482-4.407-5.451-7.99-11.083-7.98-.883 0-1.737.09-2.54.26 1.677.573 3.182 1.647 4.407 3.394 3.755 5.35-4.788 8.834-4.296 13.301.491 4.477 5.671 5.833 5.671 5.833-4.065-4.88-.612-7.961 1.346-9.196l-.753 3.253c2.75-1.275 4.567-2.67 5.722-4.066h-.01ZM60.497 65.42c-7.328-8.744-7.419-14.567-7.419-14.567s-.863 1.466-.803 3.835c0 0 1.175 5.762 7.77 14.767 0 0 3.524-4.718 7.57-5.822-4.407-.452-7.128 1.797-7.128 1.797l.01-.01ZM85.413 65.42c7.329-8.744 7.42-14.567 7.42-14.567s.862 1.466.802 3.835c0 0-1.174 5.762-7.77 14.767 0 0-3.523-4.718-7.57-5.822 4.408-.452 7.118 1.797 7.118 1.797v-.01ZM62.907 70.198c-1.135 2.4-1.928 5.28-1.506 8.353 0 0 1.204-1.205 4.768 1.375s6.455 1.415 4.869-1.335c-.632-1.094-1.767-1.376-2.861-1.827h-.02l-.04-.02c-3.775-1.476-4.89-4.87-5.21-6.546ZM83.014 70.198c1.145 2.4 1.928 5.28 1.506 8.353 0 0-1.204-1.205-4.768 1.375s-6.455 1.415-4.87-1.335c.633-1.094 1.768-1.376 2.862-1.827h.02l.04-.02c3.765-1.476 4.89-4.87 5.21-6.546ZM93.023 109.079h-1.064V112h-1.004v-2.921h-1.064v-.803h3.132v.803Zm5.31 2.921h-.993v-2.911h-.11l-.914 2.038h-.703l-.924-2.068h-.13V112h-.944v-3.724h1.617l.752 1.817.784-1.817h1.576V112h-.01Z" fill="#A1ABB2"/></svg>